<svg id="Layer_1" data-name="Layer 1" xmlns="http://www.w3.org/2000/svg" width="281.46" height="87.91" viewBox="0 0 281.46 87.91"><defs><style>.cls-1{opacity:0.5;}</style></defs><title>logo-dark</title><path id="pencil" d="M442,308v16h16l47.18-47.18-16-16Zm75.55-43.56a4.23,4.23,0,0,0,0-6l-10-10a4.23,4.23,0,0,0-6,0l-7.81,7.8,16,16Z" transform="translate(-442 -246.93)"/><g id="title"><path d="M584.9,311H570.57l-26-39.59a60.6,60.6,0,0,1-3.17-5.23h-.17q.35,3.33.35,10.19V311h-13.4V248H543.5l25,38.37c1.15,1.73,2.2,3.44,3.17,5.14h.17a68.4,68.4,0,0,1-.35-8.66V248H584.9Z" transform="translate(-442 -246.93)"/><path d="M625.94,312.1q-13.53,0-22.06-8.81t-8.52-23q0-14.94,8.65-24.17T627,246.93q13.5,0,21.82,8.83t8.33,23.29q0,14.85-8.64,23.95T625.94,312.1Zm.62-53a14.29,14.29,0,0,0-11.87,5.61q-4.4,5.6-4.39,14.83t4.39,14.81a15.16,15.16,0,0,0,23.16.15q4.3-5.3,4.31-14.7,0-9.79-4.18-15.25A13.61,13.61,0,0,0,626.56,259.14Z" transform="translate(-442 -246.93)"/><path d="M667.56,311V248h22.32q33.57,0,33.58,30.72,0,14.73-9.17,23.51T689.88,311Zm14.19-51.46v39.95h7q9.24,0,14.48-5.54t5.25-15.07q0-9-5.2-14.18t-14.61-5.16Z" transform="translate(-442 -246.93)"/></g><g id="text" class="cls-1"><path d="M540.54,331a10.36,10.36,0,0,1-5.16,1.31,7,7,0,0,1-5.33-2.13,7.79,7.79,0,0,1-2-5.63,8,8,0,0,1,2.26-5.87,7.71,7.71,0,0,1,5.73-2.29,9.8,9.8,0,0,1,4.22.81v2A8.06,8.06,0,0,0,535.8,318a5.58,5.58,0,0,0-4.25,1.78,7.45,7.45,0,0,0-.11,9.21,5.35,5.35,0,0,0,4.16,1.68,6.43,6.43,0,0,0,3.13-.72V325.6h-3.37V324h5.18Z" transform="translate(-442 -246.93)"/><path d="M549.51,332.26a5.14,5.14,0,0,1-3.9-1.54,5.71,5.71,0,0,1-1.45-4.09,6,6,0,0,1,1.51-4.33,5.46,5.46,0,0,1,4.1-1.56,4.93,4.93,0,0,1,3.84,1.52,6,6,0,0,1,1.38,4.2,5.9,5.9,0,0,1-1.49,4.21A5.2,5.2,0,0,1,549.51,332.26Zm.13-10a3.35,3.35,0,0,0-2.69,1.16,4.73,4.73,0,0,0-1,3.18,4.52,4.52,0,0,0,1,3.09,3.42,3.42,0,0,0,2.68,1.13,3.2,3.2,0,0,0,2.62-1.11,4.77,4.77,0,0,0,.92-3.15,4.86,4.86,0,0,0-.92-3.18A3.2,3.2,0,0,0,549.64,322.22Z" transform="translate(-442 -246.93)"/><path d="M573.77,332H572v-1.72h0a3.67,3.67,0,0,1-3.38,2,3.6,3.6,0,0,1-2.57-.87,3,3,0,0,1-.93-2.31c0-2.06,1.21-3.25,3.63-3.59L572,325c0-1.87-.76-2.81-2.27-2.81a5.45,5.45,0,0,0-3.59,1.36v-1.81a6.88,6.88,0,0,1,3.74-1q3.89,0,3.88,4.11ZM572,326.44l-2.66.36a4.35,4.35,0,0,0-1.84.61,1.74,1.74,0,0,0-.63,1.54,1.68,1.68,0,0,0,.58,1.32,2.21,2.21,0,0,0,1.53.51,2.83,2.83,0,0,0,2.16-.92,3.3,3.3,0,0,0,.86-2.33Z" transform="translate(-442 -246.93)"/><path d="M587.25,332h-1.76v-6.34c0-2.29-.85-3.44-2.55-3.44a2.79,2.79,0,0,0-2.17,1,3.68,3.68,0,0,0-.89,2.55V332h-1.76V315.71h1.76v7.12h0a4,4,0,0,1,3.61-2.09c2.47,0,3.71,1.5,3.71,4.48Z" transform="translate(-442 -246.93)"/><path d="M600.45,326.94h-7.77a4.13,4.13,0,0,0,1,2.84,3.43,3.43,0,0,0,2.6,1,5.36,5.36,0,0,0,3.41-1.23v1.66a6.37,6.37,0,0,1-3.83,1.05,4.63,4.63,0,0,1-3.66-1.5,6.14,6.14,0,0,1-1.34-4.22,6,6,0,0,1,1.46-4.18,4.67,4.67,0,0,1,3.61-1.62,4.16,4.16,0,0,1,3.35,1.4,5.86,5.86,0,0,1,1.18,3.88Zm-1.81-1.49a3.58,3.58,0,0,0-.73-2.38,2.55,2.55,0,0,0-2-.85,2.82,2.82,0,0,0-2.11.9,4.06,4.06,0,0,0-1.08,2.33Z" transform="translate(-442 -246.93)"/><path d="M612,332h-1.76v-1.72h0a3.67,3.67,0,0,1-3.38,2,3.62,3.62,0,0,1-2.57-.87,3,3,0,0,1-.93-2.31c0-2.06,1.21-3.25,3.63-3.59l3.3-.46c0-1.87-.76-2.81-2.27-2.81a5.45,5.45,0,0,0-3.59,1.36v-1.81a6.88,6.88,0,0,1,3.74-1q3.89,0,3.88,4.11Zm-1.76-5.56-2.66.36a4.35,4.35,0,0,0-1.84.61,1.74,1.74,0,0,0-.63,1.54,1.71,1.71,0,0,0,.58,1.32,2.21,2.21,0,0,0,1.53.51,2.83,2.83,0,0,0,2.16-.92,3.3,3.3,0,0,0,.86-2.33Z" transform="translate(-442 -246.93)"/><path d="M625.76,332H624v-1.87h0a4.44,4.44,0,0,1-7.1.65,6.08,6.08,0,0,1-1.24-4,6.56,6.56,0,0,1,1.38-4.37,4.51,4.51,0,0,1,3.66-1.65,3.54,3.54,0,0,1,3.3,1.79h0v-6.82h1.76ZM624,327V325.4a3.12,3.12,0,0,0-.88-2.25,3,3,0,0,0-2.24-.93,3,3,0,0,0-2.53,1.19,5.12,5.12,0,0,0-.92,3.26,4.64,4.64,0,0,0,.88,3,2.89,2.89,0,0,0,2.38,1.11,3,3,0,0,0,2.39-1.07A4,4,0,0,0,624,327Z" transform="translate(-442 -246.93)"/><path d="M632,329.55l-1.72,5.29H629l1.25-5.29Z" transform="translate(-442 -246.93)"/><path d="M652.36,332h-1.77v-6.27q0-3.51-2.55-3.51a2.8,2.8,0,0,0-2.19,1,3.71,3.71,0,0,0-.86,2.51V332h-1.76V321H645v1.83h0a4,4,0,0,1,3.61-2.09,3.37,3.37,0,0,1,2.76,1.17,5.17,5.17,0,0,1,1,3.37Z" transform="translate(-442 -246.93)"/><path d="M661.31,332.26a5.14,5.14,0,0,1-3.9-1.54,5.71,5.71,0,0,1-1.45-4.09,6,6,0,0,1,1.51-4.33,5.46,5.46,0,0,1,4.1-1.56,4.93,4.93,0,0,1,3.84,1.52,6,6,0,0,1,1.38,4.2,5.9,5.9,0,0,1-1.49,4.21A5.2,5.2,0,0,1,661.31,332.26Zm.13-10a3.35,3.35,0,0,0-2.69,1.16,4.73,4.73,0,0,0-1,3.18,4.52,4.52,0,0,0,1,3.09,3.42,3.42,0,0,0,2.68,1.13,3.2,3.2,0,0,0,2.62-1.11,4.83,4.83,0,0,0,.92-3.15,4.92,4.92,0,0,0-.92-3.18A3.2,3.2,0,0,0,661.44,322.22Z" transform="translate(-442 -246.93)"/><path d="M680,332h-1.76v-1.87h0a4.07,4.07,0,0,1-3.78,2.13,4.11,4.11,0,0,1-3.32-1.48,6.08,6.08,0,0,1-1.24-4,6.56,6.56,0,0,1,1.38-4.37,4.52,4.52,0,0,1,3.66-1.65,3.54,3.54,0,0,1,3.3,1.79h0v-6.82H680Zm-1.76-5V325.4a3.12,3.12,0,0,0-.88-2.25,2.94,2.94,0,0,0-2.23-.93,3,3,0,0,0-2.54,1.19,5.18,5.18,0,0,0-.92,3.26,4.64,4.64,0,0,0,.88,3,2.89,2.89,0,0,0,2.38,1.11,3,3,0,0,0,2.39-1.07A3.91,3.91,0,0,0,678.26,327Z" transform="translate(-442 -246.93)"/><path d="M696.28,332.26a5.13,5.13,0,0,1-3.89-1.54,5.72,5.72,0,0,1-1.46-4.09,6,6,0,0,1,1.52-4.33,5.43,5.43,0,0,1,4.09-1.56,4.93,4.93,0,0,1,3.84,1.52,6,6,0,0,1,1.38,4.2,5.9,5.9,0,0,1-1.49,4.21A5.2,5.2,0,0,1,696.28,332.26Zm.13-10a3.37,3.37,0,0,0-2.69,1.16,4.78,4.78,0,0,0-1,3.18,4.47,4.47,0,0,0,1,3.09,3.38,3.38,0,0,0,2.67,1.13,3.23,3.23,0,0,0,2.63-1.11,4.83,4.83,0,0,0,.92-3.15,4.92,4.92,0,0,0-.92-3.18A3.24,3.24,0,0,0,696.41,322.22Z" transform="translate(-442 -246.93)"/><path d="M711,317.26a2.36,2.36,0,0,0-1.17-.29c-1.23,0-1.84.78-1.84,2.33V321h2.57v1.5H708V332h-1.76v-9.5h-1.88V321h1.88v-1.78a3.73,3.73,0,0,1,1-2.74,3.82,3.82,0,0,1,3.77-.81Z" transform="translate(-442 -246.93)"/><path d="M719,317.26a2.36,2.36,0,0,0-1.17-.29c-1.23,0-1.84.78-1.84,2.33V321h2.57v1.5H716V332h-1.76v-9.5h-1.88V321h1.88v-1.78a3.73,3.73,0,0,1,1-2.74,3.82,3.82,0,0,1,3.77-.81Z" transform="translate(-442 -246.93)"/><path d="M722.06,332.24a1.12,1.12,0,0,1-.84-.36,1.13,1.13,0,0,1-.35-.85,1.15,1.15,0,0,1,.35-.85,1.12,1.12,0,0,1,.84-.36,1.16,1.16,0,0,1,.86.36,1.15,1.15,0,0,1,.35.85,1.13,1.13,0,0,1-.35.85A1.16,1.16,0,0,1,722.06,332.24Z" transform="translate(-442 -246.93)"/></g></svg>